<?xml version="1.0" encoding="UTF-8"?>
<svg version="1.1" xmlns="http://www.w3.org/2000/svg" width="484" height="111">
<path d="M0 0 C159.72 0 319.44 0 484 0 C484 36.63 484 73.26 484 111 C324.28 111 164.56 111 0 111 C0 74.37 0 37.74 0 0 Z " fill="#FEFEFE" transform="translate(0,0)"/>
<path d="M0 0 C3.06303578 -0.08115993 6.12390815 -0.14057409 9.1875 -0.1875 C10.48397461 -0.22520508 10.48397461 -0.22520508 11.80664062 -0.26367188 C16.72579386 -0.32021387 20.00304609 -0.2053242 24 3 C26 5 26 5 26.4375 8.3125 C25.89859263 12.85471922 24.45743005 14.14762021 21 17 C21.598125 17.825 22.19625 18.65 22.8125 19.5 C25.24800901 23.12292799 26.58074746 26.88416763 28 31 C29.65 31 31.3 31 33 31 C33.51385254 29.64467163 33.51385254 29.64467163 34.03808594 28.26196289 C35.31203712 24.91429979 36.6064493 21.57486973 37.90722656 18.23754883 C38.46754176 16.79147465 39.02226852 15.34322225 39.57128906 13.89282227 C40.36107676 11.80929389 41.17057697 9.73440438 41.984375 7.66015625 C42.22621521 7.00910416 42.46805542 6.35805206 42.71722412 5.68727112 C43.44433594 3.86743164 43.44433594 3.86743164 45 1 C47.18847656 0.08374023 47.18847656 0.08374023 49 0 C49.58285767 1.35532837 49.58285767 1.35532837 50.17749023 2.73803711 C51.61567789 6.08054783 53.05699117 9.42170294 54.49926758 12.76245117 C55.12382396 14.21032335 55.74752466 15.65856495 56.37036133 17.10717773 C57.2642059 19.18570413 58.16108912 21.26289562 59.05859375 23.33984375 C59.3377916 23.99089584 59.61698944 24.64194794 59.90464783 25.31272888 C61.09770136 28.37907656 61.09770136 28.37907656 63 31 C65.31 31.33 67.62 31.66 70 32 C70 22.1 70 12.2 70 2 C68.68 1.67 67.36 1.34 66 1 C66 0.67 66 0.34 66 0 C70.62 0 75.24 0 80 0 C78.68 0.66 77.36 1.32 76 2 C76 11.57 76 21.14 76 31 C87.35298552 31.45206715 87.35298552 31.45206715 90.6875 26.9375 C91.120625 25.968125 91.55375 24.99875 92 24 C92.33 24 92.66 24 93 24 C92.67 27.63 92.34 31.26 92 35 C72.2 34.505 72.2 34.505 52 34 C52 33.34 52 32.68 52 32 C53.32 32 54.64 32 56 32 C54.68 28.7 53.36 25.4 52 22 C48.04 22 44.08 22 40 22 C38.68 25.3 37.36 28.6 36 32 C37.32 32 38.64 32 40 32 C40 32.66 40 33.32 40 34 C37.39521117 34.0809313 34.79293347 34.14045434 32.1875 34.1875 C31.44951172 34.21263672 30.71152344 34.23777344 29.95117188 34.26367188 C24.55835413 34.33687755 24.55835413 34.33687755 22.12890625 32.87109375 C20.59095495 30.3220326 19.71299532 27.68938774 18.75 24.875 C17.30365938 20.70351109 17.30365938 20.70351109 14.12109375 17.9921875 C11.98253925 17.65837748 11.98253925 17.65837748 9 18 C9 22.62 9 27.24 9 32 C9.99 32.33 10.98 32.66 12 33 C8.04 33 4.08 33 0 33 C1.485 32.505 1.485 32.505 3 32 C3 22.1 3 12.2 3 2 C2.01 1.67 1.02 1.34 0 1 C0 0.67 0 0.34 0 0 Z " fill="#587C39" transform="translate(180,41)"/>
<path d="M0 0 C0.99 0 1.98 0 3 0 C3.38857178 0.90355225 3.77714355 1.80710449 4.17749023 2.73803711 C5.61567789 6.08054783 7.05699117 9.42170294 8.49926758 12.76245117 C9.12382396 14.21032335 9.74752466 15.65856495 10.37036133 17.10717773 C11.2642059 19.18570413 12.16108912 21.26289562 13.05859375 23.33984375 C13.3377916 23.99089584 13.61698944 24.64194794 13.90464783 25.31272888 C15.09770136 28.37907656 15.09770136 28.37907656 17 31 C19.31 31.33 21.62 31.66 24 32 C24 22.1 24 12.2 24 2 C22.68 1.67 21.36 1.34 20 1 C20 0.67 20 0.34 20 0 C24.62 0 29.24 0 34 0 C32.02 0.99 32.02 0.99 30 2 C30 11.57 30 21.14 30 31 C41.35298552 31.45206715 41.35298552 31.45206715 44.6875 26.9375 C45.120625 25.968125 45.55375 24.99875 46 24 C46.33 24 46.66 24 47 24 C46.67 27.63 46.34 31.26 46 35 C26.2 34.505 26.2 34.505 6 34 C6 33.34 6 32.68 6 32 C7.32 32 8.64 32 10 32 C8.68 28.7 7.36 25.4 6 22 C1.71 21.67 -2.58 21.34 -7 21 C-7 20.67 -7 20.34 -7 20 C-3.04 20 0.92 20 5 20 C3.35 16.04 1.7 12.08 0 8 C-0.99 8.99 -1.98 9.98 -3 11 C-2.53199289 6.94393835 -2.12046792 3.53411321 0 0 Z " fill="#517731" transform="translate(226,41)"/>
<path d="M0 0 C0.33 3.63 0.66 7.26 1 11 C0.34 11 -0.32 11 -1 11 C-1.226875 10.030625 -1.45375 9.06125 -1.6875 8.0625 C-3.6898418 4.70618959 -3.6898418 4.70618959 -7.09375 4.37890625 C-10.40331244 4.14507847 -13.68256258 4.00946487 -17 4 C-17 7.96 -17 11.92 -17 16 C-14.36 15.67 -11.72 15.34 -9 15 C-8.34 13.35 -7.68 11.7 -7 10 C-6.67 10 -6.34 10 -6 10 C-6 14.62 -6 19.24 -6 24 C-6.66 23.67 -7.32 23.34 -8 23 C-8 21.35 -8 19.7 -8 18 C-10.97 18 -13.94 18 -17 18 C-17 22.62 -17 27.24 -17 32 C-12.38 32 -7.76 32 -3 32 C-2.34 30.35 -1.68 28.7 -1 27 C-0.67 26.34 -0.34 25.68 0 25 C0.66 25 1.32 25 2 25 C1.125 32.625 1.125 32.625 0 36 C-12.87 35.505 -12.87 35.505 -26 35 C-26 34.34 -26 33.68 -26 33 C-25.01 33 -24.02 33 -23 33 C-23 23.1 -23 13.2 -23 3 C-23.99 2.67 -24.98 2.34 -26 2 C-26 1.67 -26 1.34 -26 1 C-22.22921314 0.83227069 -18.45836341 0.66599875 -14.6875 0.5 C-13.61564453 0.45230469 -12.54378906 0.40460937 -11.43945312 0.35546875 C-9.89741211 0.28779297 -9.89741211 0.28779297 -8.32421875 0.21875 C-7.37635498 0.17685547 -6.42849121 0.13496094 -5.4519043 0.09179688 C-3.63561776 0.0237969 -1.81755902 0 0 0 Z " fill="#4F752E" transform="translate(439,40)"/>
<path d="M0 0 C3.63166442 -0.97359514 6.3889727 -1.13152082 10 0 C12.99447325 3.1690781 15.26849504 6.47744406 17.578125 10.15625 C20.1605408 14.25479378 23.0934392 18.1245856 26 22 C26.33 15.4 26.66 8.8 27 2 C25.68 1.34 24.36 0.68 23 0 C26.63 0 30.26 0 34 0 C32.02 0.99 32.02 0.99 30 2 C30 12.56 30 23.12 30 34 C29.01 34 28.02 34 27 34 C25.57714844 32.50634766 25.57714844 32.50634766 24.109375 30.4140625 C23.29146484 29.26357422 23.29146484 29.26357422 22.45703125 28.08984375 C21.89371094 27.27644531 21.33039063 26.46304688 20.75 25.625 C20.20214844 24.85027344 19.65429688 24.07554688 19.08984375 23.27734375 C17.38289027 20.85882653 15.69160919 18.42927439 14 16 C11.69 12.7 9.38 9.4 7 6 C7 14.25 7 22.5 7 31 C7.99 31.33 8.98 31.66 10 32 C10 32.66 10 33.32 10 34 C6.7 34 3.4 34 0 34 C0 33.34 0 32.68 0 32 C0.99 31.67 1.98 31.34 3 31 C3.07421454 27.06739056 3.12863136 23.13505278 3.16479492 19.2019043 C3.18728333 17.20672299 3.22540198 15.21173787 3.26367188 13.21679688 C3.27333984 11.96318359 3.28300781 10.70957031 3.29296875 9.41796875 C3.3086792 8.26063232 3.32438965 7.1032959 3.34057617 5.91088867 C3.2576975 2.97892022 3.2576975 2.97892022 1.48168945 1.09887695 C0.99273193 0.73624756 0.50377441 0.37361816 0 0 Z " fill="#557A36" transform="translate(44,41)"/>
<path d="M0 0 C1.8137207 0.11547852 1.8137207 0.11547852 4 1 C5.53979492 3.65209961 5.53979492 3.65209961 6.98046875 7.15234375 C7.23878983 7.76767471 7.4971109 8.38300568 7.76325989 9.01698303 C8.58570985 10.98487417 9.38682034 12.96066444 10.1875 14.9375 C10.73752634 16.26555712 11.28894282 17.59303941 11.84179688 18.91992188 C12.85282837 21.3494172 13.85372172 23.78217449 14.84838867 26.21850586 C15.51697076 27.83333641 16.21837608 29.43675217 17 31 C17.99 31.33 18.98 31.66 20 32 C20 32.66 20 33.32 20 34 C15.38 34 10.76 34 6 34 C6 33.34 6 32.68 6 32 C7.32 32 8.64 32 10 32 C8.68 28.7 7.36 25.4 6 22 C2.04 21.67 -1.92 21.34 -6 21 C-7.485 26.445 -7.485 26.445 -9 32 C-8.01 32 -7.02 32 -6 32 C-6 32.66 -6 33.32 -6 34 C-9.3 34 -12.6 34 -16 34 C-16 33.34 -16 32.68 -16 32 C-15.01 31.67 -14.02 31.34 -13 31 C-11.81286685 28.70981365 -10.81668551 26.50722017 -9.86328125 24.12109375 C-9.57897751 23.4344313 -9.29467377 22.74776886 -9.00175476 22.04029846 C-8.09496221 19.84346596 -7.20362591 17.64072785 -6.3125 15.4375 C-5.70087649 13.94815389 -5.0882585 12.45921577 -4.47460938 10.97070312 C-2.97148696 7.31843834 -1.48219761 3.66080385 0 0 Z " fill="#517631" transform="translate(94,41)"/>
<path d="M0 0 C3.06303578 -0.08115993 6.12390815 -0.14057409 9.1875 -0.1875 C10.48397461 -0.22520508 10.48397461 -0.22520508 11.80664062 -0.26367188 C16.72579386 -0.32021387 20.00304609 -0.2053242 24 3 C26 5 26 5 26.4375 8.375 C26 12 26 12 23.6875 14.375 C21 16 21 16 18 17 C17.67 16.01 17.34 15.02 17 14 C17.515625 13.62875 18.03125 13.2575 18.5625 12.875 C20.31865276 10.98853581 20.31865276 10.98853581 19.9375 7.9375 C19.29732687 4.97607459 19.29732687 4.97607459 17.3125 3.6875 C14.60237959 2.88178853 11.78888358 2.46481393 9 2 C9 6.62 9 11.24 9 16 C10.98 16 12.96 16 15 16 C15 16.33 15 16.66 15 17 C13.02 17 11.04 17 9 17 C9 21.95 9 26.9 9 32 C9.99 32.33 10.98 32.66 12 33 C8.04 33 4.08 33 0 33 C1.485 32.505 1.485 32.505 3 32 C3 22.1 3 12.2 3 2 C2.01 1.67 1.02 1.34 0 1 C0 0.67 0 0.34 0 0 Z " fill="#4F752E" transform="translate(180,41)"/>
<path d="M0 0 C4.29 0 8.58 0 13 0 C11.02 0.99 11.02 0.99 9 2 C9.05187541 5.75112898 9.14695218 9.49995532 9.25 13.25 C9.26417969 14.31347656 9.27835938 15.37695312 9.29296875 16.47265625 C9.32519531 17.49746094 9.35742188 18.52226563 9.390625 19.578125 C9.41157227 20.52075195 9.43251953 21.46337891 9.45410156 22.43457031 C10.15291929 25.71863859 11.40336356 26.93191672 14 29 C16.70127224 29.66557499 16.70127224 29.66557499 19.5625 29.5625 C20.98755859 29.59537109 20.98755859 29.59537109 22.44140625 29.62890625 C25.1070565 29.21119644 25.1070565 29.21119644 26.796875 27.171875 C28.60505721 22.40484918 28.57419042 17.74758199 28.6875 12.6875 C28.72166016 11.66076172 28.75582031 10.63402344 28.79101562 9.57617188 C28.87323409 7.05089037 28.94246936 4.5259446 29 2 C27.68 1.67 26.36 1.34 25 1 C25 0.67 25 0.34 25 0 C28.3 0 31.6 0 35 0 C34.67 0.66 34.34 1.32 34 2 C33.01 2 32.02 2 31 2 C31.02094727 2.69561035 31.04189453 3.3912207 31.06347656 4.10791016 C31.1469698 7.28012458 31.19876529 10.45210731 31.25 13.625 C31.30027344 15.26662109 31.30027344 15.26662109 31.3515625 16.94140625 C31.42830956 23.27303834 31.36027015 27.23749091 27 32 C22.61157838 34.83956693 17.05144257 34.65466696 12 34 C8.4775014 32.30165246 6.60419193 31.21444383 4.85595703 27.70043945 C3.93523387 24.7956708 3.77071967 22.52058949 3.8046875 19.48046875 C3.81435547 17.9480957 3.81435547 17.9480957 3.82421875 16.38476562 C3.84097656 15.32966797 3.85773438 14.27457031 3.875 13.1875 C3.88402344 12.11306641 3.89304688 11.03863281 3.90234375 9.93164062 C3.92584694 7.28753146 3.95870425 4.64388128 4 2 C2.68 1.67 1.36 1.34 0 1 C0 0.67 0 0.34 0 0 Z " fill="#4A7129" transform="translate(142,41)"/>
<path d="M0 0 C0.98248524 4.0527516 1.08159574 7.83861737 1 12 C-1.36280927 9.85199157 -2.58340234 7.83319533 -4 5 C-7.69990228 3.15004886 -11.96167141 3.53013158 -16 4 C-19.55680172 6.10504591 -20.69468936 7.08406808 -22 11 C-22.49470704 16.62019635 -22.76832892 21.43590185 -20.25 26.5625 C-16.45998197 30.76197987 -16.45998197 30.76197987 -11.203125 32.29296875 C-10.22859375 32.25816406 -9.2540625 32.22335938 -8.25 32.1875 C-7.26515625 32.16042969 -6.2803125 32.13335937 -5.265625 32.10546875 C-4.14414062 32.05326172 -4.14414062 32.05326172 -3 32 C-2.71125 31.030625 -2.4225 30.06125 -2.125 29.0625 C-1 26 -1 26 1 25 C0.51171875 31.0546875 0.51171875 31.0546875 0 33 C-5.11677322 36.41118215 -11.03702164 35.6339379 -17 35 C-21.62134705 33.41956987 -24.77681246 30.7784395 -27.5 26.75 C-29.8765781 21.85891739 -29.96548604 16.92227327 -28.26953125 11.7890625 C-26.29392596 7.45079456 -24.08180425 4.61654119 -20 2 C-16.47651856 0.82550619 -13.11230826 0.64957503 -9.4375 0.4375 C-8.40979492 0.37272461 -8.40979492 0.37272461 -7.36132812 0.30664062 C-2.4015377 0 -2.4015377 0 0 0 Z " fill="#4C732C" transform="translate(314,40)"/>
<path d="M0 0 C4.62 0 9.24 0 14 0 C13.67 0.66 13.34 1.32 13 2 C12.34 2 11.68 2 11 2 C11.5775 2.84304687 12.155 3.68609375 12.75 4.5546875 C13.50024193 5.66129435 14.25022874 6.76807419 15 7.875 C15.7425 8.96554688 16.485 10.05609375 17.25 11.1796875 C19 14 19 14 19 16 C19.66 16 20.32 16 21 16 C21.2475 15.154375 21.495 14.30875 21.75 13.4375 C23.13973627 9.61572526 24.91120838 6.48131937 27 3 C26.01 2.01 25.02 1.02 24 0 C27.3 0 30.6 0 34 0 C33.319375 0.7425 32.63875 1.485 31.9375 2.25 C24.22131723 11.71282586 20.87252468 19.68952658 21 32 C22.32 32 23.64 32 25 32 C25 32.66 25 33.32 25 34 C20.71 34 16.42 34 12 34 C12 33.34 12 32.68 12 32 C12.99 32 13.98 32 15 32 C15.52933976 20.88386495 13.40510961 14.41198153 6.54296875 5.73046875 C4.3481484 3.37381833 2.97352297 2.08821237 0 1 C0 0.67 0 0.34 0 0 Z " fill="#557A35" transform="translate(316,41)"/>
<path d="M0 0 C1.20272819 2.40545638 1.10071472 3.94996953 1.0625 6.625 C1.05347656 7.44226562 1.04445313 8.25953125 1.03515625 9.1015625 C1.02355469 9.72804688 1.01195312 10.35453125 1 11 C-0.71315461 9.32991352 -2.19293053 7.74028583 -3.625 5.8125 C-6.76425165 3.41675532 -8.947738 3.48899201 -12.8125 3.6796875 C-15.86387791 4.12649641 -17.68279003 4.96366397 -20 7 C-22.62968751 11.2575893 -22.65377369 16.14916064 -22 21 C-20.6805172 25.11535986 -18.98710728 28.12257131 -15.75 31 C-11.86326731 32.41335734 -9.1384594 32.40049607 -5 32 C-2.34144803 30.22763202 -1.29231897 27.88286538 0 25 C0.66 25 1.32 25 2 25 C1.609375 31.0546875 1.609375 31.0546875 1 33 C-3.68656828 36.52047902 -10.47446926 35.43405042 -16 35 C-21.31494293 33.29162549 -23.75607098 30.35613326 -27 26 C-29.25307348 21.49385305 -28.70360452 15.86281512 -28 11 C-25.4740119 6.44073027 -21.93414722 2.83096404 -17 1 C-14.43265499 0.70483886 -11.9487874 0.49333505 -9.375 0.375 C-8.3540625 0.31699219 -8.3540625 0.31699219 -7.3125 0.2578125 C-4.8740114 0.12287637 -2.44264604 0 0 0 Z " fill="#497128" transform="translate(378,40)"/>
<path d="M0 0 C9.57 0 19.14 0 29 0 C30.28317892 3.84953676 30.06643637 6.94738135 30 11 C27.67210485 8.16604069 26.92622107 6.70488428 26 3 C23.03 3 20.06 3 17 3 C17 12.9 17 22.8 17 33 C18.32 33 19.64 33 21 33 C21 33.66 21 34.32 21 35 C16.71 35 12.42 35 8 35 C8 34.34 8 33.68 8 33 C9.32 33 10.64 33 12 33 C12 23.1 12 13.2 12 3 C4.57383848 3.10581779 4.57383848 3.10581779 2.34375 5.62890625 C1.92609375 6.58603516 1.92609375 6.58603516 1.5 7.5625 C1.005 8.696875 0.51 9.83125 0 11 C-0.33 11 -0.66 11 -1 11 C-1.07622858 7.03611362 -0.9681648 3.8726592 0 0 Z " fill="#497027" transform="translate(110,40)"/>
<path d="M0 0 C4.29 0 8.58 0 13 0 C12.67 0.66 12.34 1.32 12 2 C11.01 2 10.02 2 9 2 C9 11.57 9 21.14 9 31 C13.29 31 17.58 31 22 31 C22.66 29.35 23.32 27.7 24 26 C25.625 24.1875 25.625 24.1875 27 23 C26.85904936 24.6254308 26.71207913 26.25034051 26.5625 27.875 C26.48128906 28.77992187 26.40007812 29.68484375 26.31640625 30.6171875 C26 33 26 33 25 35 C16.75 34.67 8.5 34.34 0 34 C0 33.34 0 32.68 0 32 C1.32 32 2.64 32 4 32 C4 22.1 4 12.2 4 2 C2.68 1.67 1.36 1.34 0 1 C0 0.67 0 0.34 0 0 Z " fill="#446D22" transform="translate(383,41)"/>
<path d="M0 0 C0.99 0 1.98 0 3 0 C3.37809814 0.89307861 3.75619629 1.78615723 4.14575195 2.70629883 C5.55298696 6.02487371 6.96975205 9.33930823 8.3894043 12.65258789 C9.00203196 14.08604912 9.61208365 15.52061415 10.21948242 16.95629883 C11.09396188 19.02201523 11.97768645 21.08355996 12.86328125 23.14453125 C13.13215652 23.78526077 13.4010318 24.4259903 13.67805481 25.08613586 C15.14429692 28.47144226 16.33050456 30.33050456 19 33 C15.04 33 11.08 33 7 33 C8.485 32.505 8.485 32.505 10 32 C8.68 28.7 7.36 25.4 6 22 C1.71 21.67 -2.58 21.34 -7 21 C-7 20.67 -7 20.34 -7 20 C-3.04 20 0.92 20 5 20 C3.35 16.04 1.7 12.08 0 8 C-0.99 8.99 -1.98 9.98 -3 11 C-2.53199289 6.94393835 -2.12046792 3.53411321 0 0 Z " fill="#4A7229" transform="translate(226,41)"/>
<path d="M0 0 C0.33 0.66 0.66 1.32 1 2 C1.66 2 2.32 2 3 2 C3.67260351 3.76858691 4.33788395 5.53996016 5 7.3125 C5.37125 8.29863281 5.7425 9.28476562 6.125 10.30078125 C7 13 7 13 7 16 C3.37 16.33 -0.26 16.66 -4 17 C-5.485 22.445 -5.485 22.445 -7 28 C-6.01 28 -5.02 28 -4 28 C-4 28.66 -4 29.32 -4 30 C-7.3 30 -10.6 30 -14 30 C-14 29.34 -14 28.68 -14 28 C-13.01 27.67 -12.02 27.34 -11 27 C-9.54623785 24.31866138 -9.54623785 24.31866138 -8.30078125 20.99609375 C-7.81416016 19.78115234 -7.32753906 18.56621094 -6.82617188 17.31445312 C-6.32137394 16.0222294 -5.81681979 14.72991041 -5.3125 13.4375 C-4.79724519 12.14086976 -4.28098133 10.84464 -3.76367188 9.54882812 C-2.49910971 6.36969521 -1.24508569 3.18680014 0 0 Z " fill="#517731" transform="translate(92,45)"/>
<path d="M0 0 C8.35031847 0.48407643 8.35031847 0.48407643 11.125 2.6875 C12.32390155 5.85602553 11.97795117 7.78673186 11 11 C7.91111478 13.05925681 7.29064073 13.2390374 3.8125 13.125 C1.9253125 13.063125 1.9253125 13.063125 0 13 C0 8.71 0 4.42 0 0 Z " fill="#F6F8F5" transform="translate(189,43)"/>
<path d="M0 0 C0.33 0 0.66 0 1 0 C0.67 3.63 0.34 7.26 0 11 C-19.8 10.505 -19.8 10.505 -40 10 C-39.67 9.34 -39.34 8.68 -39 8 C-31.41 8 -23.82 8 -16 8 C-16 7.67 -16 7.34 -16 7 C-14.77023437 6.99613281 -14.77023437 6.99613281 -13.515625 6.9921875 C-7.52373201 7.05392473 -7.52373201 7.05392473 -2.34765625 4.59765625 C-1.16179817 2.78018493 -1.16179817 2.78018493 0 0 Z " fill="#7A9762" transform="translate(272,65)"/>
<path d="M0 0 C0.66 0 1.32 0 2 0 C1.125 7.625 1.125 7.625 0 11 C-12.87 10.505 -12.87 10.505 -26 10 C-26 9.67 -26 9.34 -26 9 C-21.545 8.505 -21.545 8.505 -17 8 C-17 7.67 -17 7.34 -17 7 C-12.38 7 -7.76 7 -3 7 C-2.34 5.35 -1.68 3.7 -1 2 C-0.67 1.34 -0.34 0.68 0 0 Z " fill="#74935B" transform="translate(439,65)"/>
<path d="M0 0 C0.33 0 0.66 0 1 0 C0.85904936 1.6254308 0.71207913 3.25034051 0.5625 4.875 C0.48128906 5.77992187 0.40007812 6.68484375 0.31640625 7.6171875 C0 10 0 10 -1 12 C-9.25 11.67 -17.5 11.34 -26 11 C-25.67 10.34 -25.34 9.68 -25 9 C-22.36 9 -19.72 9 -17 9 C-17 8.67 -17 8.34 -17 8 C-12.71 8 -8.42 8 -4 8 C-3.34 6.35 -2.68 4.7 -2 3 C-1.34 2.01 -0.68 1.02 0 0 Z " fill="#6F8E55" transform="translate(409,64)"/>
<path d="M0 0 C0.66 0 1.32 0 2 0 C2.6708712 1.6232687 3.33657029 3.24867578 4 4.875 C4.556875 6.23238281 4.556875 6.23238281 5.125 7.6171875 C6 10 6 10 6 12 C2.7 12 -0.6 12 -4 12 C-2.68 8.04 -1.36 4.08 0 0 Z " fill="#F3F6F1" transform="translate(93,48)"/>
<path d="M0 0 C2.9512645 1.47563225 3.06923915 3.50079352 4.125 6.5625 C4.47820312 7.57441406 4.83140625 8.58632813 5.1953125 9.62890625 C5.46085938 10.41136719 5.72640625 11.19382812 6 12 C2.7 12 -0.6 12 -4 12 C-3.52309796 10.37433394 -3.04340334 8.74948689 -2.5625 7.125 C-2.29566406 6.22007813 -2.02882812 5.31515625 -1.75390625 4.3828125 C-1 2 -1 2 0 0 Z " fill="#F5F7F3" transform="translate(225,48)"/>
<path d="M0 0 C1.20272819 2.40545638 1.10071472 3.94996953 1.0625 6.625 C1.05347656 7.44226562 1.04445313 8.25953125 1.03515625 9.1015625 C1.02355469 9.72804688 1.01195312 10.35453125 1 11 C-0.68895452 9.34878748 -2.18603586 7.75672233 -3.625 5.875 C-6.71963785 3.43186485 -9.11728839 3.44011711 -12.9765625 3.2734375 C-15 3 -15 3 -17 1 C-14.54171921 0.83252588 -12.08338135 0.6659856 -9.625 0.5 C-8.92632812 0.45230469 -8.22765625 0.40460937 -7.5078125 0.35546875 C-2.2265625 0 -2.2265625 0 0 0 Z " fill="#527732" transform="translate(378,40)"/>
<path d="M0 0 C0.99 0 1.98 0 3 0 C3.33 3.63 3.66 7.26 4 11 C3.34 11 2.68 11 2 11 C1.773125 10.030625 1.54625 9.06125 1.3125 8.0625 C-0.6898418 4.70618959 -0.6898418 4.70618959 -4.09375 4.37890625 C-7.40331244 4.14507847 -10.68256258 4.00946487 -14 4 C-14 7.96 -14 11.92 -14 16 C-14.33 16 -14.66 16 -15 16 C-15 11.71 -15 7.42 -15 3 C-14.00097656 2.95101562 -13.00195312 2.90203125 -11.97265625 2.8515625 C-10.68230469 2.77679688 -9.39195312 2.70203125 -8.0625 2.625 C-6.77472656 2.55539063 -5.48695313 2.48578125 -4.16015625 2.4140625 C-3.11730469 2.27742188 -2.07445312 2.14078125 -1 2 C-0.67 1.34 -0.34 0.68 0 0 Z " fill="#76945D" transform="translate(436,40)"/>
<path d="M0 0 C12.87 0.495 12.87 0.495 26 1 C26 1.33 26 1.66 26 2 C18.74 2 11.48 2 4 2 C3.34 3.98 2.68 5.96 2 8 C0.375 9.875 0.375 9.875 -1 11 C-1.07622858 7.03611362 -0.9681648 3.8726592 0 0 Z " fill="#537934" transform="translate(110,40)"/>
<path d="M0 0 C0.98248524 4.0527516 1.08159574 7.83861737 1 12 C-0.78151275 10.38044295 -1.90922504 9.2269374 -2.8125 6.96875 C-3.84157689 4.80626651 -3.84157689 4.80626651 -6.1640625 4.171875 C-7.38222656 3.96304688 -7.38222656 3.96304688 -8.625 3.75 C-9.44226563 3.60046875 -10.25953125 3.4509375 -11.1015625 3.296875 C-12.04128906 3.14992187 -12.04128906 3.14992187 -13 3 C-13 2.67 -13 2.34 -13 2 C-11.20873548 1.66451233 -9.41697413 1.33167645 -7.625 1 C-6.62726563 0.814375 -5.62953125 0.62875 -4.6015625 0.4375 C-2 0 -2 0 0 0 Z " fill="#557A36" transform="translate(314,40)"/>
<path d="M0 0 C0.33 0 0.66 0 1 0 C0.51171875 6.0546875 0.51171875 6.0546875 0 8 C-3.7367843 10.49118953 -5.74451819 10.2065226 -10.1875 10.125 C-11.45980469 10.10695313 -12.73210937 10.08890625 -14.04296875 10.0703125 C-15.50669922 10.03550781 -15.50669922 10.03550781 -17 10 C-13.71508627 7.81005752 -12.16904361 7.64722661 -8.3125 7.375 C-7.31863281 7.30023438 -6.32476562 7.22546875 -5.30078125 7.1484375 C-4.54152344 7.09945312 -3.78226562 7.05046875 -3 7 C-2.690625 6.030625 -2.38125 5.06125 -2.0625 4.0625 C-1 1 -1 1 0 0 Z " fill="#537934" transform="translate(314,65)"/>
<path d="M0 0 C0.99 0.33 1.98 0.66 3 1 C2.34 3.31 1.68 5.62 1 8 C1.99 8 2.98 8 4 8 C4 8.66 4 9.32 4 10 C0.7 10 -2.6 10 -6 10 C-6 9.34 -6 8.68 -6 8 C-5.01 7.67 -4.02 7.34 -3 7 C-1.28432339 3.49705129 -1.28432339 3.49705129 0 0 Z " fill="#698A4D" transform="translate(84,65)"/>
<path d="M0 0 C3.63 0 7.26 0 11 0 C10.34 0.66 9.68 1.32 9 2 C8.01 2 7.02 2 6 2 C6 9.26 6 16.52 6 24 C5.67 24 5.34 24 5 24 C5 16.74 5 9.48 5 2 C3.35 1.67 1.7 1.34 0 1 C0 0.67 0 0.34 0 0 Z " fill="#4C732B" transform="translate(67,41)"/>
<path d="M0 0 C0.66 0 1.32 0 2 0 C1.67 2.64 1.34 5.28 1 8 C-0.98 8.66 -2.96 9.32 -5 10 C-5 7 -5 7 -3.625 5.5625 C-3.08875 5.046875 -2.5525 4.53125 -2 4 C-0.82425289 1.90010348 -0.82425289 1.90010348 0 0 Z " fill="#5B7E3C" transform="translate(378,65)"/>
<path d="M0 0 C0.99 0 1.98 0 3 0 C4.28317892 3.84953676 4.06643637 6.94738135 4 11 C0.85041169 7.57653445 0.43820891 4.55737263 0 0 Z " fill="#527732" transform="translate(136,40)"/>
<path d="M0 0 C0.33 0.66 0.66 1.32 1 2 C1.66 2.33 2.32 2.66 3 3 C2.34 3 1.68 3 1 3 C0.87625 3.70125 0.7525 4.4025 0.625 5.125 C-0.03838345 8.17656387 -0.97211955 11.05340938 -2 14 C-3.1171875 12.328125 -3.1171875 12.328125 -4 10 C-3.3203125 7.421875 -3.3203125 7.421875 -2.125 4.75 C-1.73570313 3.85796875 -1.34640625 2.9659375 -0.9453125 2.046875 C-0.63335937 1.37140625 -0.32140625 0.6959375 0 0 Z " fill="#577B38" transform="translate(92,45)"/>
</svg>
